<svg id="Layer_1" xmlns="http://www.w3.org/2000/svg" viewBox="0 0 111 39.6"><style>.st0{fill:#33a348}.st1{fill:#fff}</style><path class="st0" d="M97.9 6.7h-5v-1l1.7-1.2c1.2-.9 1.9-1.4 1.9-2.3 0-.8-.5-1.2-1.3-1.2-1 0-1.9.8-1.9.8l-.6-.7C93.6.4 94.5 0 95.5 0c1.4 0 2.3.7 2.3 1.9s-1.3 2.2-2.1 2.8l-1.5 1.1H98l-.1.9zM100.3 6.9c-.5 0-.9-.4-.9-1 0-.5.4-1 .9-1s.9.4.9 1c0 .5-.4 1-.9 1zM105.2 6.9c-1.8 0-2.9-1.3-2.9-3.4 0-2.1 1.2-3.4 2.9-3.4 1.8 0 2.9 1.3 2.9 3.4-.1 2.1-1.2 3.4-2.9 3.4zm-.1-5.9c-1.1 0-1.6.8-1.6 2.3 0 1.9.6 2.6 1.6 2.6 1.1 0 1.6-.8 1.6-2.3.1-1.9-.5-2.6-1.6-2.6z"/><path class="st1" d="M10.9 29.6c2.1 0 3.4-.7 4.6-1.7l1.3 1.6c-1.6 1.3-3.3 2-5.9 2-4.4 0-7.5-2.5-7.5-9.6s3-9.7 7.1-9.7c4.3 0 6.6 2.7 6.6 9v1H5.8c.1 5.7 1.6 7.4 5.1 7.4zm3.8-9.1c0-4.7-1.4-6.3-4.3-6.3-2.6 0-4.3 1.4-4.6 6.3h8.9zM21.9 12.7h1.6l.5 2.7c1.8-1.8 3.8-3.1 6.1-3.1 2.6 0 4.6 1.6 4.6 4.8v14.2h-2.3V17.7c0-2.5-.9-3.3-2.8-3.3s-3.7 1.2-5.4 2.7v14.2h-2.3V12.7zM39.1 12.7h1.6l.5 3.1c1.6-1.9 3.4-3.4 5.6-3.4.2 0 .5 0 .6.1l-.2 2.5c-.2-.1-.5-.1-.8-.1-1.9 0-3.3 1-5 2.8v13.6h-2.3V12.7zM53.6 14.5l-2.6-.4v-1.5h5v18.5h-2.3V14.5zM60.9 22c0-7 3-9.7 7.3-9.7 2.3 0 3.8.8 5.2 2.2L71.9 16c-1.1-1.2-2.1-1.8-3.9-1.8-3.1 0-4.7 1.7-4.7 7.6 0 5.9 1.6 7.7 4.9 7.7 2 0 3-.9 3.9-1.9l1.5 1.4c-1.2 1.4-2.9 2.4-5.5 2.4-4.2.2-7.2-2.5-7.2-9.4zM77.7 3.5H80v11.7c1.8-1.7 3.6-2.9 5.9-2.9 2.6 0 4.6 1.6 4.6 4.8v14.2h-2.3V17.7c0-2.5-.9-3.3-2.8-3.3s-3.7 1.2-5.4 2.7v14.2h-2.3V3.5z"/><path class="st0" d="M52.8 6.6c0-1 .7-1.8 1.7-1.8s1.8.8 1.8 1.8-.7 1.8-1.8 1.8c-.9 0-1.7-.8-1.7-1.8z"/></svg>