<svg xmlns="http://www.w3.org/2000/svg" viewBox="0 0 146 41.7"><path fill="#171717" d="M11.2 38.8c3.2 0 5.1-1.1 6.9-2.5l1.9 2.4c-2.4 1.9-5 3-8.8 3C4.6 41.7 0 38.1 0 27.5 0 17 4.4 13.1 10.5 13.1c6.4 0 9.8 4 9.8 13.4v1.4H3.6c.1 8.4 2.4 10.9 7.6 10.9zm5.6-13.6c0-7-2.1-9.3-6.3-9.3-3.9 0-6.4 2.1-6.8 9.3h13.1zM27.4 13.6h2.4l.8 4c2.7-2.6 5.6-4.5 9-4.5 3.9 0 6.8 2.3 6.8 7.1v21h-3.5V21.1c0-3.7-1.3-5-4.1-5s-5.5 1.8-7.9 4v21.1h-3.5V13.6zM52.9 13.6h2.4l.8 4.7c2.3-2.8 5.1-5.1 8.3-5.1.3 0 .8.1.9.1L65 17c-.2-.1-.7-.2-1.2-.2-2.8 0-4.9 1.4-7.4 4.1v20.2h-3.5V13.6zM74.6 16.4l-3.9-.5v-2.2H78v27.5h-3.5V16.4zM85.3 27.5c0-10.4 4.5-14.4 10.8-14.4 3.4 0 5.6 1.2 7.7 3.2l-2.1 2.4c-1.6-1.7-3.1-2.6-5.8-2.6-4.5 0-7 2.5-7 11.3s2.4 11.5 7.3 11.5c2.9 0 4.5-1.4 5.8-2.8l2.2 2.1c-1.8 2.1-4.4 3.6-8.2 3.6-6.3-.1-10.7-4-10.7-14.3zM110.3 0h3.5v17.4c2.7-2.5 5.4-4.3 8.7-4.3 3.9 0 6.8 2.3 6.8 7.1v21h-3.5V21.1c0-3.7-1.3-5-4.1-5s-5.5 1.8-7.9 4v21.1h-3.5V0z"/><path fill="#3DB54A" d="M73.3 4.7c0-1.6 1.1-2.7 2.6-2.7 1.6 0 2.6 1.2 2.6 2.7 0 1.5-1.1 2.6-2.6 2.6s-2.6-1.1-2.6-2.6zM137.328 1.369l8.711 10.574-1.698 1.399-8.711-10.574z"/><path fill="#3DB54A" d="M144.285 1.357l1.697 1.4-8.714 10.57-1.698-1.399z"/></svg>