<svg id="Layer_1" xmlns="http://www.w3.org/2000/svg" viewBox="-218 320.9 174.4 152.1"><style>.st0{opacity:.15}.st1{enable-background:new}.st2{fill:#818792}.st3{opacity:5e-2;fill:#0e1d33;enable-background:new}</style><g class="st0 st1"><path class="st2" d="M-216.4 466.9V451h4.5c1.4 0 2.6.3 3.7.9 1.1.6 1.9 1.5 2.5 2.6.6 1.1.9 2.4.9 3.9v1c0 1.5-.3 2.8-.9 3.9s-1.4 2-2.5 2.6-2.3.9-3.7.9h-4.5zm2.1-14.1v12.4h2.2c1.6 0 2.9-.5 3.8-1.5.9-1 1.3-2.4 1.3-4.3v-.9c0-1.8-.4-3.2-1.3-4.2s-2-1.5-3.6-1.5h-2.4zM-196.4 457c-.3-.1-.6-.1-1-.1-1.3 0-2.2.6-2.7 1.7v8.4h-2v-11.8h2v1.4c.7-1.1 1.6-1.6 2.8-1.6.4 0 .7.1.9.2v1.8zM-195.3 460.9c0-1.2.2-2.2.7-3.1s1.1-1.6 1.9-2.1c.8-.5 1.7-.8 2.8-.8 1.6 0 2.9.6 3.9 1.7s1.5 2.6 1.5 4.4v.1c0 1.1-.2 2.2-.7 3.1-.4.9-1.1 1.6-1.9 2.1-.8.5-1.8.8-2.8.8-1.6 0-2.9-.6-3.9-1.7s-1.5-2.6-1.5-4.4v-.1zm2.1.3c0 1.3.3 2.4.9 3.1.6.8 1.4 1.2 2.4 1.2s1.8-.4 2.4-1.2c.6-.8.9-1.9.9-3.4 0-1.3-.3-2.3-.9-3.1s-1.4-1.2-2.4-1.2-1.8.4-2.4 1.2-.9 1.9-.9 3.4zM-172.1 461.2c0 1.8-.4 3.2-1.2 4.3-.8 1.1-1.9 1.6-3.3 1.6s-2.6-.5-3.4-1.4v5.7h-2v-16.3h1.8l.1 1.3c.8-1 2-1.5 3.4-1.5s2.5.5 3.4 1.6 1.2 2.6 1.2 4.5v.2zm-2-.3c0-1.3-.3-2.4-.8-3.1-.6-.8-1.3-1.2-2.3-1.2-1.2 0-2.1.5-2.7 1.6v5.6c.6 1.1 1.5 1.6 2.8 1.6 1 0 1.7-.4 2.3-1.1.4-.7.7-1.9.7-3.4zM-164 452c0-.3.1-.6.3-.8s.5-.3.9-.3.7.1.9.3.3.5.3.8c0 .3-.1.6-.3.8s-.5.3-.9.3-.7-.1-.9-.3-.3-.5-.3-.8zm2.2 14.9h-2v-11.8h2v11.8zM-156.7 455.1l.1 1.3c.9-1 2-1.5 3.5-1.5 1.6 0 2.8.6 3.4 1.9.4-.6.9-1 1.5-1.4.6-.3 1.4-.5 2.2-.5 2.6 0 3.9 1.4 3.9 4.1v7.9h-2v-7.8c0-.8-.2-1.5-.6-1.9-.4-.4-1-.6-1.9-.6-.7 0-1.4.2-1.9.7s-.8 1-.9 1.8v7.8h-2v-7.7c0-1.7-.8-2.6-2.5-2.6-1.3 0-2.2.6-2.7 1.7v8.6h-2v-11.8h1.9zM-131.8 466.9c-.1-.2-.2-.6-.3-1.2-.9 1-2.1 1.5-3.4 1.5-1.2 0-2.1-.3-2.9-1s-1.1-1.5-1.1-2.5c0-1.2.5-2.2 1.4-2.9s2.2-1 3.9-1h2v-.9c0-.7-.2-1.3-.6-1.7-.4-.4-1-.6-1.9-.6-.7 0-1.3.2-1.8.5s-.7.8-.7 1.3h-2c0-.6.2-1.2.6-1.7s1-1 1.7-1.3 1.5-.5 2.4-.5c1.4 0 2.4.3 3.2 1 .8.7 1.2 1.6 1.2 2.8v5.4c0 1.1.1 1.9.4 2.6v.2h-2.1zm-3.3-1.5c.6 0 1.2-.2 1.8-.5.6-.3 1-.8 1.2-1.3v-2.4h-1.6c-2.5 0-3.7.7-3.7 2.2 0 .6.2 1.1.6 1.5.5.3 1 .5 1.7.5zM-127.4 460.9c0-1.8.4-3.3 1.3-4.4s2-1.6 3.4-1.6 2.6.5 3.4 1.5l.1-1.3h1.8v11.5c0 1.5-.5 2.7-1.4 3.6-.9.9-2.1 1.3-3.6 1.3-.8 0-1.7-.2-2.5-.5-.8-.4-1.4-.9-1.9-1.5l1-1.2c.9 1.1 1.9 1.6 3.2 1.6 1 0 1.7-.3 2.3-.8.5-.6.8-1.3.8-2.3v-1c-.8.9-1.9 1.4-3.3 1.4s-2.5-.6-3.3-1.7c-.9-1.1-1.3-2.6-1.3-4.6zm2 .3c0 1.3.3 2.4.8 3.1.5.8 1.3 1.1 2.3 1.1 1.3 0 2.2-.6 2.8-1.7v-5.4c-.6-1.1-1.5-1.7-2.8-1.7-1 0-1.7.4-2.3 1.1-.5.8-.8 2-.8 3.5zM-109.5 467.1c-1.6 0-2.9-.5-3.9-1.6s-1.5-2.5-1.5-4.2v-.3c0-1.2.2-2.2.7-3.1s1.1-1.6 1.9-2.2c.8-.5 1.7-.8 2.6-.8 1.5 0 2.7.5 3.6 1.5s1.3 2.5 1.3 4.3v.8h-8c0 1.2.4 2.1 1 2.8s1.5 1.1 2.5 1.1c.7 0 1.3-.1 1.8-.4.5-.3.9-.7 1.3-1.2l1.2 1c-1 1.6-2.5 2.3-4.5 2.3zm-.3-10.5c-.8 0-1.5.3-2 .9-.6.6-.9 1.4-1 2.5h5.9v-.2c-.1-1-.3-1.8-.8-2.4-.5-.5-1.2-.8-2.1-.8zM-95.7 463.8c0-.5-.2-1-.6-1.3-.4-.3-1.1-.6-2.1-.8s-1.8-.5-2.4-.8c-.6-.3-1-.7-1.3-1.1-.3-.4-.4-.9-.4-1.5 0-1 .4-1.8 1.2-2.5.8-.7 1.9-1 3.1-1 1.3 0 2.4.3 3.3 1 .8.7 1.2 1.6 1.2 2.6h-2c0-.6-.2-1-.7-1.4-.5-.4-1.1-.6-1.8-.6s-1.3.2-1.7.5c-.4.3-.6.7-.6 1.3 0 .5.2.9.6 1.1.4.2 1.1.5 2.1.7 1 .2 1.8.5 2.4.8.6.3 1.1.7 1.4 1.1.3.4.5 1 .5 1.6 0 1.1-.4 1.9-1.3 2.5-.8.6-1.9 1-3.3 1-.9 0-1.8-.2-2.5-.5s-1.3-.8-1.7-1.4c-.4-.6-.6-1.2-.6-1.9h2c0 .7.3 1.2.8 1.6.5.4 1.2.6 2 .6s1.4-.2 1.8-.5.6-.6.6-1.1zM-83.5 456.6c.9-1.1 2.1-1.6 3.5-1.6 2.5 0 3.7 1.4 3.8 4.2v7.8h-2v-7.8c0-.8-.2-1.5-.6-1.9-.4-.4-1-.6-1.8-.6-.7 0-1.2.2-1.7.5s-.9.8-1.2 1.4v8.4h-2v-16.7h2v6.3zM-68.4 467.1c-1.6 0-2.9-.5-3.9-1.6-1-1-1.5-2.5-1.5-4.2v-.3c0-1.2.2-2.2.7-3.1s1.1-1.6 1.9-2.2c.8-.5 1.7-.8 2.6-.8 1.5 0 2.7.5 3.6 1.5.8 1 1.3 2.5 1.3 4.3v.8h-8c0 1.2.4 2.1 1 2.8s1.5 1.1 2.5 1.1c.7 0 1.3-.1 1.8-.4.5-.3.9-.7 1.3-1.2l1.2 1c-1 1.6-2.5 2.3-4.5 2.3zm-.2-10.5c-.8 0-1.5.3-2 .9-.6.6-.9 1.4-1 2.5h5.9v-.2c-.1-1-.3-1.8-.8-2.4-.6-.5-1.3-.8-2.1-.8zM-55.8 457c-.3-.1-.6-.1-1-.1-1.3 0-2.2.6-2.7 1.7v8.4h-2v-11.8h2v1.4c.7-1.1 1.6-1.6 2.8-1.6.4 0 .7.1.9.2v1.8zM-49.2 467.1c-1.6 0-2.9-.5-3.9-1.6s-1.5-2.5-1.5-4.2v-.3c0-1.2.2-2.2.7-3.1s1.1-1.6 1.9-2.2c.8-.5 1.7-.8 2.6-.8 1.5 0 2.7.5 3.6 1.5s1.3 2.5 1.3 4.3v.8h-8c0 1.2.4 2.1 1 2.8s1.5 1.1 2.5 1.1c.7 0 1.3-.1 1.8-.4.5-.3.9-.7 1.3-1.2l1.2 1c-1.1 1.6-2.6 2.3-4.5 2.3zm-.3-10.5c-.8 0-1.5.3-2 .9-.6.6-.9 1.4-1 2.5h5.9v-.2c-.1-1-.3-1.8-.8-2.4-.6-.5-1.2-.8-2.1-.8z"/></g><path class="st3" d="M-62.5 420.6h-136.6v-99.7h136.5v99.7h.1zm-125.7-11h114.7v-77.8h-114.7v77.8z"/><path class="st3" d="M-151.3 340l-28.7 61.5h98.3l-24.5-32.8-15.1 12.3z"/><circle class="st3" cx="-94" cy="350.9" r="9.6"/></svg>