<svg id="Capa_1" xmlns="http://www.w3.org/2000/svg" viewBox="-205 297 200 200"><style>.st0{fill:#424a60}.st1{fill:#343b49}.st2{fill:#556080}.st3{fill:#38454f}</style><path class="st0" d="M-151.3 310.4h94.5v187.3h-94.5z"/><path class="st1" d="M-57.1 406.9h-94.5c-1.4 0-2.6-1.3-2.6-2.8 0-1.6 1.2-2.8 2.6-2.8h94.5c1.4 0 2.6 1.3 2.6 2.8 0 1.5-1.2 2.8-2.6 2.8zM-56.8 316h-94.5c-1.4 0-2.6-1.3-2.6-2.8s1.2-2.8 2.6-2.8h94.5c1.4 0 2.6 1.3 2.6 2.8s-1.1 2.8-2.6 2.8zM-56.8 497.7h-94.5c-1.4 0-2.6-1.3-2.6-2.8 0-1.6 1.2-2.8 2.6-2.8h94.5c1.4 0 2.6 1.3 2.6 2.8.1 1.5-1.1 2.8-2.6 2.8z"/><path class="st2" d="M-56.8 466.5v31.2h26.3v-31.2h-26.3zm18.4 22.7h-10.5V475h10.5v14.2z"/><path class="st3" d="M-56.8 435.3v31.2h26.3v-31.2h-26.3zm18.4 22.7h-10.5v-14.2h10.5V458z"/><path class="st2" d="M-56.8 404v31.2h26.3V404h-26.3zm18.4 22.7h-10.5v-14.2h10.5v14.2z"/><path class="st3" d="M-56.8 372.8V404h26.3v-31.2h-26.3zm18.4 22.7h-10.5v-14.2h10.5v14.2z"/><path class="st2" d="M-177.5 466.5v31.2h26.3v-31.2h-26.3zm18.4 22.7h-10.5V475h10.5v14.2z"/><path class="st3" d="M-177.5 435.3v31.2h26.3v-31.2h-26.3zm18.4 22.7h-10.5v-14.2h10.5V458z"/><path class="st2" d="M-177.5 404v31.2h26.3V404h-26.3zm18.4 22.7h-10.5v-14.2h10.5v14.2z"/><path class="st3" d="M-177.5 372.8V404h26.3v-31.2h-26.3zm18.4 22.7h-10.5v-14.2h10.5v14.2z"/><path class="st2" d="M-56.8 341.6v31.2h26.3v-31.2h-26.3zm18.4 22.7h-10.5v-14.2h10.5v14.2z"/><path class="st3" d="M-56.8 310.4v31.2h26.3v-31.2h-26.3zm18.4 22.7h-10.5v-14.2h10.5v14.2z"/><path class="st2" d="M-177.5 341.6v31.2h26.3v-31.2h-26.3zm18.4 22.7h-10.5v-14.2h10.5v14.2z"/><path class="st3" d="M-177.5 310.4v31.2h26.3v-31.2h-26.3zm18.4 22.7h-10.5v-14.2h10.5v14.2z"/></svg>