<svg id="Layer_1" xmlns="http://www.w3.org/2000/svg" viewBox="-218 320.9 174.4 152.1"><style>.st0{opacity:.14;fill:#818792}.st1{opacity:.15}.st2{fill:#808691}</style><path class="st0" d="M-69.4 322.9h-122.3c-1.2 0-2.2 1-2.2 2.2v96.1c0 1.2 1 2.2 2.2 2.2h122.3c1.2 0 2.2-1 2.2-2.2v-96.1c-.1-1.2-1-2.2-2.2-2.2zM-172.1 419h-17.5v-19.7h17.5V419zm0-24h-17.5v-19.7h17.5V395zm0-24h-17.5v-19.7h17.5V371zm0-24.1h-17.5v-19.7h17.5v19.7zm58 28.1l-24 15.3c-.4.2-.8.3-1.2.3-.4 0-.7-.1-1.1-.3-.7-.4-1.1-1.1-1.1-1.9v-30.6c0-.8.4-1.5 1.1-1.9.7-.4 1.6-.4 2.2.1l24 15.3c.6.4 1 1.1 1 1.8s-.3 1.5-.9 1.9zm42.5 44h-17.5v-19.7h17.5V419zm0-24h-17.5v-19.7h17.5V395zm0-24h-17.5v-19.7h17.5V371zm0-24.1h-17.5v-19.7h17.5v19.7z"/><g class="st1"><path class="st2" d="M-206.6 467v-15.9h4.5c1.4 0 2.6.3 3.7.9 1.1.6 1.9 1.5 2.5 2.6.6 1.1.9 2.4.9 3.9v1c0 1.5-.3 2.8-.9 3.9s-1.4 2-2.5 2.6c-1.1.6-2.3.9-3.7.9h-4.5zm2.1-14.2v12.4h2.2c1.6 0 2.9-.5 3.8-1.5.9-1 1.3-2.4 1.3-4.3v-.9c0-1.8-.4-3.2-1.3-4.2s-2-1.5-3.6-1.5h-2.4zM-186.6 457c-.3-.1-.6-.1-1-.1-1.3 0-2.2.6-2.7 1.7v8.4h-2v-11.8h2v1.4c.7-1.1 1.6-1.6 2.8-1.6.4 0 .7.1.9.2v1.8zM-185.5 461c0-1.2.2-2.2.7-3.1.5-.9 1.1-1.6 1.9-2.1.8-.5 1.7-.8 2.8-.8 1.6 0 2.9.6 3.9 1.7s1.5 2.6 1.5 4.4v.1c0 1.1-.2 2.2-.7 3.1-.4.9-1.1 1.6-1.9 2.1-.8.5-1.8.8-2.8.8-1.6 0-2.9-.6-3.9-1.7s-1.5-2.6-1.5-4.4v-.1zm2.1.2c0 1.3.3 2.4.9 3.1.6.8 1.4 1.2 2.4 1.2s1.8-.4 2.4-1.2c.6-.8.9-1.9.9-3.4 0-1.3-.3-2.3-.9-3.1s-1.4-1.2-2.4-1.2-1.8.4-2.4 1.2-.9 2-.9 3.4zM-162.2 461.2c0 1.8-.4 3.2-1.2 4.3-.8 1.1-1.9 1.6-3.3 1.6s-2.6-.5-3.4-1.4v5.7h-2v-16.3h1.8l.1 1.3c.8-1 2-1.5 3.4-1.5s2.5.5 3.4 1.6 1.2 2.6 1.2 4.5v.2zm-2.1-.2c0-1.3-.3-2.4-.8-3.1-.6-.8-1.3-1.2-2.3-1.2-1.2 0-2.1.5-2.7 1.6v5.6c.6 1.1 1.5 1.6 2.8 1.6 1 0 1.7-.4 2.3-1.1.5-.8.7-1.9.7-3.4zM-150.3 464.3l2.9-9h2.1l-4.2 11.8h-1.5l-4.3-11.8h2.1l2.9 9zM-143.4 452.1c0-.3.1-.6.3-.8.2-.2.5-.3.9-.3s.7.1.9.3c.2.2.3.5.3.8 0 .3-.1.6-.3.8-.2.2-.5.3-.9.3s-.7-.1-.9-.3c-.2-.2-.3-.5-.3-.8zm2.2 14.9h-2v-11.8h2V467zM-138.4 461c0-1.8.4-3.3 1.3-4.4s2-1.6 3.4-1.6 2.5.5 3.3 1.4v-6.1h2V467h-1.9l-.1-1.3c-.8 1-1.9 1.5-3.4 1.5-1.4 0-2.5-.6-3.3-1.7-.9-1.1-1.3-2.6-1.3-4.4v-.1zm2 .2c0 1.3.3 2.4.8 3.1s1.3 1.1 2.3 1.1c1.3 0 2.2-.6 2.8-1.7v-5.4c-.6-1.1-1.5-1.7-2.8-1.7-1 0-1.8.4-2.3 1.1-.6.9-.8 2-.8 3.5zM-120.5 467.2c-1.6 0-2.9-.5-3.9-1.6-1-1-1.5-2.5-1.5-4.2v-.4c0-1.2.2-2.2.7-3.1.4-.9 1.1-1.6 1.9-2.2.8-.5 1.7-.8 2.6-.8 1.5 0 2.7.5 3.6 1.5.8 1 1.3 2.5 1.3 4.3v.8h-8c0 1.2.4 2.1 1 2.8s1.5 1.1 2.5 1.1c.7 0 1.3-.1 1.8-.4.5-.3.9-.7 1.3-1.2l1.2 1c-1 1.6-2.5 2.4-4.5 2.4zm-.2-10.6c-.8 0-1.5.3-2 .9-.6.6-.9 1.4-1 2.5h5.9v-.2c-.1-1-.3-1.8-.8-2.4-.6-.5-1.3-.8-2.1-.8zM-114.1 461c0-1.2.2-2.2.7-3.1.5-.9 1.1-1.6 1.9-2.1.8-.5 1.7-.8 2.8-.8 1.6 0 2.9.6 3.9 1.7s1.5 2.6 1.5 4.4v.1c0 1.1-.2 2.2-.7 3.1-.4.9-1.1 1.6-1.9 2.1-.8.5-1.8.8-2.8.8-1.6 0-2.9-.6-3.9-1.7s-1.5-2.6-1.5-4.4v-.1zm2 .2c0 1.3.3 2.4.9 3.1.6.8 1.4 1.2 2.4 1.2s1.8-.4 2.4-1.2c.6-.8.9-1.9.9-3.4 0-1.3-.3-2.3-.9-3.1s-1.4-1.2-2.4-1.2-1.8.4-2.4 1.2-.9 2-.9 3.4zM-93.3 456.6c.9-1.1 2.1-1.6 3.5-1.6 2.5 0 3.7 1.4 3.8 4.2v7.8h-2v-7.8c0-.8-.2-1.5-.6-1.9s-1-.6-1.8-.6c-.7 0-1.2.2-1.7.5s-.9.8-1.2 1.4v8.4h-2v-16.7h2v6.3zM-78.2 467.2c-1.6 0-2.9-.5-3.9-1.6-1-1-1.5-2.5-1.5-4.2v-.4c0-1.2.2-2.2.7-3.1.4-.9 1.1-1.6 1.9-2.2.8-.5 1.7-.8 2.6-.8 1.5 0 2.7.5 3.6 1.5.8 1 1.3 2.5 1.3 4.3v.8h-8c0 1.2.4 2.1 1 2.8s1.5 1.1 2.5 1.1c.7 0 1.3-.1 1.8-.4.5-.3.9-.7 1.3-1.2l1.2 1c-1 1.6-2.5 2.4-4.5 2.4zm-.2-10.6c-.8 0-1.5.3-2 .9-.6.6-.9 1.4-1 2.5h5.9v-.2c-.1-1-.3-1.8-.8-2.4-.6-.5-1.3-.8-2.1-.8zM-65.5 457c-.3-.1-.6-.1-1-.1-1.3 0-2.2.6-2.7 1.7v8.4h-2v-11.8h2v1.4c.7-1.1 1.6-1.6 2.8-1.6.4 0 .7.1.9.2v1.8zM-59 467.2c-1.6 0-2.9-.5-3.9-1.6-1-1-1.5-2.5-1.5-4.2v-.4c0-1.2.2-2.2.7-3.1.4-.9 1.1-1.6 1.9-2.2.8-.5 1.7-.8 2.6-.8 1.5 0 2.7.5 3.6 1.5.8 1 1.3 2.5 1.3 4.3v.8h-8c0 1.2.4 2.1 1 2.8s1.5 1.1 2.5 1.1c.7 0 1.3-.1 1.8-.4.5-.3.9-.7 1.3-1.2l1.2 1c-1.1 1.6-2.5 2.4-4.5 2.4zm-.3-10.6c-.8 0-1.5.3-2 .9-.6.6-.9 1.4-1 2.5h5.9v-.2c-.1-1-.3-1.8-.8-2.4-.5-.5-1.2-.8-2.1-.8z"/></g></svg>