<svg id="Layer_1" xmlns="http://www.w3.org/2000/svg" viewBox="-226.3 320.9 191.3 152.1"><style>.st0{fill:#90b9a2}</style><path class="st0" d="M-223.8 466.9V451h4.5c1.4 0 2.6.3 3.7.9 1.1.6 1.9 1.5 2.5 2.6s.9 2.4.9 3.9v1c0 1.5-.3 2.8-.9 3.9s-1.4 2-2.5 2.6c-1.1.6-2.3.9-3.7.9h-4.5zm2.1-14.2v12.4h2.2c1.6 0 2.9-.5 3.8-1.5s1.3-2.4 1.3-4.3v-.9c0-1.8-.4-3.2-1.3-4.2-.8-1-2-1.5-3.6-1.5h-2.4zM-203.8 456.9c-.3-.1-.6-.1-1-.1-1.3 0-2.2.6-2.7 1.7v8.4h-2v-11.8h2v1.4c.7-1.1 1.6-1.6 2.8-1.6.4 0 .7.1.9.2v1.8zM-202.7 460.9c0-1.2.2-2.2.7-3.1.5-.9 1.1-1.6 1.9-2.1.8-.5 1.7-.8 2.8-.8 1.6 0 2.9.6 3.9 1.7s1.5 2.6 1.5 4.4v.1c0 1.1-.2 2.2-.7 3.1-.4.9-1.1 1.6-1.9 2.1-.8.5-1.8.8-2.8.8-1.6 0-2.9-.6-3.9-1.7s-1.5-2.6-1.5-4.4v-.1zm2 .2c0 1.3.3 2.4.9 3.1.6.8 1.4 1.2 2.4 1.2s1.8-.4 2.4-1.2.9-1.9.9-3.4c0-1.3-.3-2.3-.9-3.1-.6-.8-1.4-1.2-2.4-1.2s-1.8.4-2.4 1.2-.9 2-.9 3.4zM-179.5 461.1c0 1.8-.4 3.2-1.2 4.3s-1.9 1.6-3.3 1.6-2.6-.5-3.4-1.4v5.7h-2V455h1.8l.1 1.3c.8-1 2-1.5 3.4-1.5s2.5.5 3.4 1.6c.8 1.1 1.2 2.6 1.2 4.5v.2zm-2.1-.2c0-1.3-.3-2.4-.8-3.1-.6-.8-1.3-1.2-2.3-1.2-1.2 0-2.1.5-2.7 1.6v5.6c.6 1.1 1.5 1.6 2.8 1.6 1 0 1.7-.4 2.3-1.1.5-.8.7-1.9.7-3.4zM-168.7 452.3v2.9h2.2v1.6h-2.2v7.3c0 .5.1.8.3 1.1.2.2.5.4 1 .4.2 0 .6 0 1-.1v1.6c-.5.1-1 .2-1.5.2-.9 0-1.6-.3-2-.8-.5-.5-.7-1.3-.7-2.3v-7.3h-2.1v-1.6h2.1v-2.9h1.9zM-159.3 467.1c-1.6 0-2.9-.5-3.9-1.6-1-1-1.5-2.5-1.5-4.2v-.3c0-1.2.2-2.2.7-3.1.4-.9 1.1-1.6 1.9-2.2.8-.5 1.7-.8 2.6-.8 1.5 0 2.7.5 3.6 1.5.8 1 1.3 2.5 1.3 4.3v.8h-8c0 1.2.4 2.1 1 2.8s1.5 1.1 2.5 1.1c.7 0 1.3-.1 1.8-.4.5-.3.9-.7 1.3-1.2l1.2 1c-1 1.5-2.5 2.3-4.5 2.3zm-.2-10.6c-.8 0-1.5.3-2 .9-.6.6-.9 1.4-1 2.5h5.9v-.2c-.1-1-.3-1.8-.8-2.4-.6-.5-1.3-.8-2.1-.8zM-150.5 455.1l.1 1.3c.9-1 2-1.5 3.5-1.5 1.6 0 2.8.6 3.4 1.9.4-.6.9-1 1.5-1.4.6-.3 1.4-.5 2.2-.5 2.6 0 3.9 1.4 3.9 4.1v7.9h-2v-7.8c0-.8-.2-1.5-.6-1.9-.4-.4-1-.6-1.9-.6-.7 0-1.4.2-1.9.7-.5.4-.8 1-.9 1.8v7.8h-2v-7.7c0-1.7-.8-2.6-2.5-2.6-1.3 0-2.2.6-2.7 1.7v8.6h-2v-11.8h1.9zM-122.9 461.1c0 1.8-.4 3.2-1.2 4.3s-1.9 1.6-3.3 1.6-2.6-.5-3.4-1.4v5.7h-2V455h1.8l.1 1.3c.8-1 2-1.5 3.4-1.5s2.5.5 3.4 1.6c.8 1.1 1.2 2.6 1.2 4.5v.2zm-2-.2c0-1.3-.3-2.4-.8-3.1-.6-.8-1.3-1.2-2.3-1.2-1.2 0-2.1.5-2.7 1.6v5.6c.6 1.1 1.5 1.6 2.8 1.6 1 0 1.7-.4 2.3-1.1.4-.8.7-1.9.7-3.4zM-118.1 466.9h-2v-16.7h2v16.7zM-107.6 466.9c-.1-.2-.2-.6-.3-1.2-.9 1-2.1 1.5-3.4 1.5-1.2 0-2.1-.3-2.9-1-.7-.7-1.1-1.5-1.1-2.5 0-1.2.5-2.2 1.4-2.9.9-.7 2.2-1 3.9-1h2v-.9c0-.7-.2-1.3-.6-1.7-.4-.4-1-.6-1.9-.6-.7 0-1.3.2-1.8.5s-.7.8-.7 1.3h-2c0-.6.2-1.2.6-1.7.4-.5 1-1 1.7-1.3.7-.3 1.5-.5 2.4-.5 1.4 0 2.4.3 3.2 1 .8.7 1.2 1.6 1.2 2.8v5.4c0 1.1.1 1.9.4 2.6v.2h-2.1zm-3.4-1.6c.6 0 1.2-.2 1.8-.5.6-.3 1-.8 1.2-1.3v-2.4h-1.6c-2.5 0-3.7.7-3.7 2.2 0 .6.2 1.1.6 1.5s1.1.5 1.7.5zM-100 452.3v2.9h2.2v1.6h-2.2v7.3c0 .5.1.8.3 1.1.2.2.5.4 1 .4.2 0 .6 0 1-.1v1.6c-.5.1-1 .2-1.5.2-.9 0-1.6-.3-2-.8-.5-.5-.7-1.3-.7-2.3v-7.3h-2.1v-1.6h2.1v-2.9h1.9zM-90.6 467.1c-1.6 0-2.9-.5-3.9-1.6-1-1-1.5-2.5-1.5-4.2v-.3c0-1.2.2-2.2.7-3.1s1.1-1.6 1.9-2.2c.8-.5 1.7-.8 2.6-.8 1.5 0 2.7.5 3.6 1.5.8 1 1.3 2.5 1.3 4.3v.8h-8c0 1.2.4 2.1 1 2.8.6.7 1.5 1.1 2.5 1.1.7 0 1.3-.1 1.8-.4.5-.3.9-.7 1.3-1.2l1.2 1c-1 1.5-2.5 2.3-4.5 2.3zm-.2-10.6c-.8 0-1.5.3-2 .9-.6.6-.9 1.4-1 2.5h5.9v-.2c-.1-1-.3-1.8-.8-2.4s-1.3-.8-2.1-.8zM-76.1 456.5c.9-1.1 2.1-1.6 3.5-1.6 2.5 0 3.7 1.4 3.8 4.2v7.8h-2v-7.8c0-.8-.2-1.5-.6-1.9s-1-.6-1.8-.6c-.7 0-1.2.2-1.7.5s-.9.8-1.2 1.4v8.4h-2v-16.7h2v6.3zM-61 467.1c-1.6 0-2.9-.5-3.9-1.6s-1.5-2.5-1.5-4.2v-.3c0-1.2.2-2.2.7-3.1.4-.9 1.1-1.6 1.9-2.2.8-.5 1.7-.8 2.6-.8 1.5 0 2.7.5 3.6 1.5.8 1 1.3 2.5 1.3 4.3v.8h-8c0 1.2.4 2.1 1 2.8.7.7 1.5 1.1 2.5 1.1.7 0 1.3-.1 1.8-.4s.9-.7 1.3-1.2l1.2 1c-1 1.5-2.5 2.3-4.5 2.3zm-.2-10.6c-.8 0-1.5.3-2 .9-.6.6-.9 1.4-1 2.5h5.9v-.2c-.1-1-.3-1.8-.8-2.4-.6-.5-1.3-.8-2.1-.8zM-48.4 456.9c-.3-.1-.6-.1-1-.1-1.3 0-2.2.6-2.7 1.7v8.4h-2v-11.8h2v1.4c.7-1.1 1.6-1.6 2.8-1.6.4 0 .7.1.9.2v1.8zM-41.8 467.1c-1.6 0-2.9-.5-3.9-1.6s-1.5-2.5-1.5-4.2v-.3c0-1.2.2-2.2.7-3.1.4-.9 1.1-1.6 1.9-2.2.8-.5 1.7-.8 2.6-.8 1.5 0 2.7.5 3.6 1.5.8 1 1.3 2.5 1.3 4.3v.8h-8c0 1.2.4 2.1 1 2.8.7.7 1.5 1.1 2.5 1.1.7 0 1.3-.1 1.8-.4s.9-.7 1.3-1.2l1.2 1c-1.1 1.5-2.5 2.3-4.5 2.3zm-.3-10.6c-.8 0-1.5.3-2 .9-.6.6-.9 1.4-1 2.5h5.9v-.2c-.1-1-.3-1.8-.8-2.4-.6-.5-1.2-.8-2.1-.8z"/><g><path class="st0" d="M-140.1 323.6h-37.3c-3.6 0-6.5 2.9-6.5 6.5v37.3c0 3.6 2.9 6.5 6.5 6.5h37.3c3.6 0 6.5-2.9 6.5-6.5v-37.3c-.1-3.6-3-6.5-6.5-6.5zm2.5 43.9c0 1.4-1.2 2.6-2.6 2.6h-37.3c-1.4 0-2.6-1.2-2.6-2.6v-37.3c0-1.4 1.2-2.6 2.6-2.6h37.3c1.4 0 2.6 1.2 2.6 2.6v37.3zM-82.2 323.6h-37.3c-3.6 0-6.5 2.9-6.5 6.5v37.3c0 3.6 2.9 6.5 6.5 6.5h37.3c3.6 0 6.5-2.9 6.5-6.5v-37.3c0-3.6-2.9-6.5-6.5-6.5zm2.6 43.9c0 1.4-1.2 2.6-2.6 2.6h-37.3c-1.4 0-2.6-1.2-2.6-2.6v-37.3c0-1.4 1.2-2.6 2.6-2.6h37.3c1.4 0 2.6 1.2 2.6 2.6v37.3zM-140.1 381.6h-37.3c-3.6 0-6.5 2.9-6.5 6.5v37.3c0 3.6 2.9 6.5 6.5 6.5h37.3c3.6 0 6.5-2.9 6.5-6.5v-37.3c-.1-3.6-3-6.5-6.5-6.5zm2.5 43.8c0 1.4-1.2 2.6-2.6 2.6h-37.3c-1.4 0-2.6-1.2-2.6-2.6v-37.3c0-1.4 1.2-2.6 2.6-2.6h37.3c1.4 0 2.6 1.2 2.6 2.6v37.3zM-77.6 404.8h-21.3v-21.3c0-1.1-.9-1.9-1.9-1.9s-1.9.9-1.9 1.9v21.3H-124c-1.1 0-1.9.9-1.9 1.9s.9 1.9 1.9 1.9h21.3V430c0 1.1.9 1.9 1.9 1.9s1.9-.9 1.9-1.9v-21.3h21.3c1.1 0 1.9-.9 1.9-1.9s-.9-2-1.9-2z"/></g></svg>