<svg id="Layer_1" xmlns="http://www.w3.org/2000/svg" viewBox="-218 320.9 174.4 152.1"><style>.st0{fill:#90b9a2}</style><path class="st0" d="M-195.2 467.6v-15.9h4.5c1.4 0 2.6.3 3.7.9 1.1.6 1.9 1.5 2.5 2.6.6 1.1.9 2.4.9 3.9v1c0 1.5-.3 2.8-.9 3.9s-1.4 2-2.5 2.6c-1.1.6-2.3.9-3.7.9h-4.5zm2.1-14.1v12.4h2.2c1.6 0 2.9-.5 3.8-1.5.9-1 1.3-2.4 1.3-4.3v-.9c0-1.8-.4-3.2-1.3-4.2s-2-1.5-3.6-1.5h-2.4zM-175.2 457.6c-.3-.1-.6-.1-1-.1-1.3 0-2.2.6-2.7 1.7v8.4h-2v-11.8h2v1.4c.7-1.1 1.6-1.6 2.8-1.6.4 0 .7.1.9.2v1.8zM-174.1 461.6c0-1.2.2-2.2.7-3.1.5-.9 1.1-1.6 1.9-2.1.8-.5 1.7-.8 2.8-.8 1.6 0 2.9.6 3.9 1.7s1.5 2.6 1.5 4.4v.1c0 1.1-.2 2.2-.7 3.1-.4.9-1.1 1.6-1.9 2.1-.8.5-1.8.8-2.8.8-1.6 0-2.9-.6-3.9-1.7s-1.5-2.6-1.5-4.4v-.1zm2 .2c0 1.3.3 2.4.9 3.1.6.8 1.4 1.2 2.4 1.2s1.8-.4 2.4-1.2c.6-.8.9-1.9.9-3.4 0-1.3-.3-2.3-.9-3.1s-1.4-1.2-2.4-1.2-1.8.4-2.4 1.2-.9 2-.9 3.4zM-150.9 461.8c0 1.8-.4 3.2-1.2 4.3-.8 1.1-1.9 1.6-3.3 1.6s-2.6-.5-3.4-1.4v5.7h-2v-16.3h1.8l.1 1.3c.8-1 2-1.5 3.4-1.5s2.5.5 3.4 1.6 1.2 2.6 1.2 4.5v.2zm-2-.2c0-1.3-.3-2.4-.8-3.1-.6-.8-1.3-1.2-2.3-1.2-1.2 0-2.1.5-2.7 1.6v5.6c.6 1.1 1.5 1.6 2.8 1.6 1 0 1.7-.4 2.3-1.1.4-.7.7-1.9.7-3.4zM-141.9 467.6v-10.2h-1.9v-1.6h1.9v-1.2c0-1.3.3-2.2 1-2.9.7-.7 1.6-1 2.9-1 .5 0 .9.1 1.4.2l-.1 1.6c-.3-.1-.7-.1-1.1-.1-.7 0-1.2.2-1.5.6-.4.4-.5.9-.5 1.6v1.2h2.5v1.6h-2.5v10.2h-2.1zM-135.1 452.7c0-.3.1-.6.3-.8.2-.2.5-.3.9-.3s.7.1.9.3c.2.2.3.5.3.8 0 .3-.1.6-.3.8-.2.2-.5.3-.9.3s-.7-.1-.9-.3c-.2-.2-.3-.5-.3-.8zm2.2 14.9h-2v-11.8h2v11.8zM-127.5 467.6h-2v-16.7h2v16.7zM-119.4 467.8c-1.6 0-2.9-.5-3.9-1.6-1-1-1.5-2.5-1.5-4.2v-.4c0-1.2.2-2.2.7-3.1s1.1-1.6 1.9-2.2c.8-.5 1.7-.8 2.6-.8 1.5 0 2.7.5 3.6 1.5.8 1 1.3 2.5 1.3 4.3v.8h-8c0 1.2.4 2.1 1 2.8.6.7 1.5 1.1 2.5 1.1.7 0 1.3-.1 1.8-.4.5-.3.9-.7 1.3-1.2l1.2 1c-1 1.7-2.5 2.4-4.5 2.4zm-.2-10.5c-.8 0-1.5.3-2 .9-.6.6-.9 1.4-1 2.5h5.9v-.2c-.1-1-.3-1.8-.8-2.4s-1.3-.8-2.1-.8zM-104.9 457.2c.9-1.1 2.1-1.6 3.5-1.6 2.5 0 3.7 1.4 3.8 4.2v7.8h-2v-7.8c0-.8-.2-1.5-.6-1.9s-1-.6-1.8-.6c-.7 0-1.2.2-1.7.5s-.9.8-1.2 1.4v8.4h-2v-16.7h2v6.3zM-89.8 467.8c-1.6 0-2.9-.5-3.9-1.6s-1.5-2.5-1.5-4.2v-.4c0-1.2.2-2.2.7-3.1.4-.9 1.1-1.6 1.9-2.2.8-.5 1.7-.8 2.6-.8 1.5 0 2.7.5 3.6 1.5s1.3 2.5 1.3 4.3v.8h-8c0 1.2.4 2.1 1 2.8.7.7 1.5 1.1 2.5 1.1.7 0 1.3-.1 1.8-.4.5-.3.9-.7 1.3-1.2l1.2 1c-1 1.7-2.5 2.4-4.5 2.4zm-.2-10.5c-.8 0-1.5.3-2 .9-.6.6-.9 1.4-1 2.5h5.9v-.2c-.1-1-.3-1.8-.8-2.4-.6-.6-1.3-.8-2.1-.8zM-77.2 457.6c-.3-.1-.6-.1-1-.1-1.3 0-2.2.6-2.7 1.7v8.4h-2v-11.8h2v1.4c.7-1.1 1.6-1.6 2.8-1.6.4 0 .7.1.9.2v1.8zM-70.6 467.8c-1.6 0-2.9-.5-3.9-1.6s-1.5-2.5-1.5-4.2v-.4c0-1.2.2-2.2.7-3.1.4-.9 1.1-1.6 1.9-2.2.8-.5 1.7-.8 2.6-.8 1.5 0 2.7.5 3.6 1.5s1.3 2.5 1.3 4.3v.8h-8c0 1.2.4 2.1 1 2.8.7.7 1.5 1.1 2.5 1.1.7 0 1.3-.1 1.8-.4.5-.3.9-.7 1.3-1.2l1.2 1c-1.1 1.7-2.6 2.4-4.5 2.4zm-.3-10.5c-.8 0-1.5.3-2 .9-.6.6-.9 1.4-1 2.5h5.9v-.2c-.1-1-.3-1.8-.8-2.4-.6-.6-1.2-.8-2.1-.8zM-111.5 321.9H-175v117.5h92v-88.9l-28.5-28.6zm-42 27.4h19.6c1.1 0 2 .9 2 2s-.9 2-2 2h-19.6c-1.1 0-2-.9-2-2s1-2 2-2zm49 66.6h-49c-1.1 0-2-.9-2-2s.9-2 2-2h49c1.1 0 2 .9 2 2s-.9 2-2 2zm0-15.7h-49c-1.1 0-2-.9-2-2s.9-2 2-2h49c1.1 0 2 .9 2 2s-.9 2-2 2zm0-15.6h-49c-1.1 0-2-.9-2-2s.9-2 2-2h49c1.1 0 2 .9 2 2s-.9 2-2 2zm0-15.7h-49c-1.1 0-2-.9-2-2s.9-2 2-2h49c1.1 0 2 .9 2 2s-.9 2-2 2zm-9.8-15.7v-27.4l27.4 27.4h-27.4z"/></svg>